<svg t="1691857925487" class="icon" viewBox="0 0 1024 1024" version="1.1" xmlns="http://www.w3.org/2000/svg" p-id="1092" width="128" height="128"><path d="M310.432 115.072c3.36 3.36 6.336 7.072 8.896 11.072l98.048 154.08c12.128 19.04 13.504 43.04 3.648 63.36l-29.248 60.288c-4.576 15.168 6.368 39.488 32.768 72.96l9.376 11.52c3.328 3.904 6.848 8 10.56 12.16l11.648 12.832 6.272 6.688 13.408 13.856 7.104 7.2 14.72 14.464c59.84 57.728 100.992 83.584 123.392 77.6l59.104-29.568c20.48-10.24 44.8-8.96 64.064 3.328l153.632 97.76a65.12 65.12 0 0 1 11.104 100.96l-84.224 84.224a130.24 130.24 0 0 1-152.16 23.456c-130.048-67.648-239.296-145.696-327.744-234.112-88.416-88.448-166.464-197.696-234.112-327.744a130.24 130.24 0 0 1 23.456-152.16l84.224-84.224a65.12 65.12 0 0 1 92.064 0z m257.344 194.336l3.712 0.32a191.264 191.264 0 0 1 108.288 54.24 191.264 191.264 0 0 1 54.496 109.92 32 32 0 1 1-63.424 8.576 127.264 127.264 0 0 0-36.352-73.216 127.264 127.264 0 0 0-72.128-36.16 32 32 0 0 1 5.408-63.68z m3.328-108.544a287.008 287.008 0 0 1 187.84 83.904 286.976 286.976 0 0 1 83.84 186.464 32 32 0 0 1-63.872 3.776 223.008 223.008 0 0 0-65.216-144.96 223.04 223.04 0 0 0-146.08-65.28 32 32 0 0 1 3.488-63.904z" p-id="1093"></path></svg>